<svg width="32" height="32" viewBox="0 0 32 32" fill="none" xmlns="http://www.w3.org/2000/svg">
<rect width="32" height="32" rx="16" fill="white"/>
<mask id="mask0_15231_18481" style="mask-type:alpha" maskUnits="userSpaceOnUse" x="11" y="8" width="10" height="15">
<path fill-rule="evenodd" clip-rule="evenodd" d="M11.8857 8.22852H20.1143V22.8571H11.8857V8.22852Z" fill="white"/>
</mask>
<g mask="url(#mask0_15231_18481)">
<path fill-rule="evenodd" clip-rule="evenodd" d="M17.2187 19.5878C17.2187 20.586 17.2129 21.5843 17.2234 22.5824C17.2256 22.7862 17.1751 22.861 16.9356 22.8569C16.1408 22.8433 15.3454 22.8439 14.5505 22.8567C14.3237 22.8604 14.2749 22.791 14.2756 22.5971C14.2824 20.6008 14.275 18.6044 14.286 16.6081C14.2873 16.3633 14.2167 16.2916 13.9487 16.3C13.3577 16.3187 12.7654 16.299 12.174 16.3095C11.9663 16.3132 11.8815 16.2717 11.8859 16.0598C11.9006 15.358 11.8981 14.6556 11.887 13.9536C11.8841 13.7662 11.9397 13.7045 12.1504 13.7086C12.7788 13.7205 13.4078 13.7062 14.0362 13.7167C14.2352 13.72 14.2856 13.6575 14.2836 13.484C14.2753 12.7651 14.2442 12.044 14.2904 11.3274C14.3687 10.1134 14.8909 9.12069 16.1531 8.56751C16.6575 8.34645 17.1984 8.24064 17.7591 8.23124C18.4794 8.21914 19.1975 8.24721 19.9142 8.31893C20.069 8.33443 20.1156 8.38505 20.1143 8.52269C20.1083 9.17397 20.1082 9.82538 20.1142 10.4767C20.1155 10.6224 20.0554 10.6669 19.9026 10.665C19.4219 10.6592 18.9411 10.6598 18.4604 10.6638C17.6288 10.6707 17.2219 11.0466 17.2187 11.8084C17.2165 12.3582 17.2267 12.9082 17.2142 13.4579C17.2098 13.6523 17.263 13.722 17.4898 13.7178C18.2014 13.7043 18.9136 13.719 19.6252 13.7088C19.8233 13.706 19.8682 13.746 19.8397 13.9328C19.7291 14.6585 19.6403 15.3872 19.5454 16.1149C19.5265 16.2597 19.4464 16.3104 19.2862 16.3085C18.6946 16.3016 18.1026 16.3147 17.5113 16.3013C17.2843 16.2962 17.2108 16.3527 17.2134 16.568C17.2253 17.5745 17.2187 18.5812 17.2187 19.5878" fill="#3872DD"/>
</g>
</svg>
