<svg width="32" height="32" viewBox="0 0 32 32" fill="none" xmlns="http://www.w3.org/2000/svg">
<rect width="32" height="32" rx="16" fill="white"/>
<mask id="mask0_15231_18497" style="mask-type:alpha" maskUnits="userSpaceOnUse" x="9" y="9" width="15" height="15">
<path fill-rule="evenodd" clip-rule="evenodd" d="M16.3043 18.7513C14.9371 18.7507 13.8699 17.6594 13.8734 16.2655C13.8767 14.9647 14.9917 13.8792 16.3214 13.8824C17.6675 13.8857 18.7422 14.9844 18.7402 16.3551C18.7382 17.6606 17.6287 18.752 16.3043 18.7513ZM16.313 12.5638C14.2826 12.5536 12.5708 14.1109 12.564 16.3106C12.5572 18.5036 14.327 20.0872 16.2845 20.0358C18.2758 20.0974 20.0525 18.5246 20.0485 16.3248C20.0447 14.2001 18.4482 12.5746 16.313 12.5638ZM21.0626 12.4422C21.0578 12.93 20.6896 13.2935 20.197 13.2967C19.7327 13.2998 19.3176 12.8709 19.3253 12.3963C19.3331 11.9183 19.717 11.553 20.2092 11.555C20.7118 11.5571 21.0676 11.9269 21.0626 12.4422ZM22.2732 15.8802C22.2732 17.1658 22.2868 18.0352 22.2672 18.9039C22.2582 19.3062 22.2139 19.713 22.1347 20.1074C21.8985 21.2825 21.1678 21.9702 19.9773 22.174C19.5595 22.2455 19.1385 22.2893 18.714 22.2893C17.0636 22.2895 15.413 22.2966 13.7626 22.2833C13.2149 22.2789 12.6651 22.2299 12.1399 22.0516C11.1694 21.7222 10.635 21.0215 10.4552 20.0312C10.3515 19.4605 10.3282 18.8833 10.3304 18.3039C10.3361 16.7708 10.3307 15.2377 10.3424 13.7046C10.3455 13.2915 10.401 12.8791 10.4885 12.4739C10.7368 11.3235 11.4656 10.6733 12.6052 10.464C13.0218 10.3875 13.4436 10.3452 13.868 10.345C15.5185 10.3442 17.169 10.3396 18.8195 10.3489C19.3294 10.3518 19.8375 10.4066 20.3341 10.5362C21.3039 10.7893 22.0069 11.6048 22.1615 12.5985C22.3528 13.828 22.2479 15.0639 22.2732 15.8802ZM23.4853 12.6177C23.3126 11.1384 22.5545 10.0476 21.1739 9.42838C20.2766 9.02599 19.3109 9.04943 18.363 9.02513C16.9931 8.99004 15.621 8.99293 14.251 9.02613C13.5808 9.04235 12.9034 9.03224 12.2394 9.18311C10.7418 9.5234 9.73947 10.3955 9.27191 11.8763C9.04427 12.5972 9.05431 13.3415 9.01893 14.0787C8.98191 14.8496 9.01065 15.6237 9.01036 16.3964C9.01005 17.1595 8.9913 17.9231 9.01619 18.6854C9.03496 19.2612 9.0558 19.8411 9.18433 20.4073C9.54807 22.01 10.5267 22.9999 12.1229 23.4072C12.9013 23.6058 13.6926 23.5699 14.4772 23.6013C15.6339 23.6476 16.7937 23.6224 17.9521 23.6155C18.7513 23.6107 19.5536 23.6009 20.3399 23.4434C21.667 23.1776 22.6288 22.4416 23.1829 21.1857C23.5561 20.3399 23.5824 19.438 23.5887 18.5478C23.6027 16.5708 23.7154 14.5885 23.4853 12.6177Z" fill="#1D1F22"/>
</mask>
<g mask="url(#mask0_15231_18497)">
<path d="M16.0026 8C12.6627 8 11.6859 8.00345 11.496 8.0192C10.8106 8.07617 10.3841 8.18409 9.91945 8.41543C9.56136 8.59324 9.27895 8.79936 9.00024 9.08829C8.49264 9.6152 8.185 10.2635 8.07364 11.034C8.0195 11.4081 8.00375 11.4844 8.00055 13.3952C7.99932 14.0321 8.00055 14.8703 8.00055 15.9947C8.00055 19.3319 8.00424 20.3077 8.02024 20.4972C8.07561 21.1642 8.18021 21.5838 8.4017 22.0428C8.82501 22.9214 9.63347 23.5809 10.5859 23.8271C10.9157 23.912 11.2799 23.9587 11.7475 23.9809C11.9457 23.9895 13.965 23.9956 15.9855 23.9956C18.006 23.9956 20.0266 23.9932 20.2198 23.9833C20.7612 23.9579 21.0756 23.9157 21.4233 23.8258C22.3818 23.5785 23.1755 22.9288 23.6075 22.0379C23.8246 21.5899 23.9348 21.1543 23.9846 20.5222C23.9954 20.3844 24 18.187 24 15.9926C24 13.7978 23.9951 11.6045 23.9842 11.4667C23.9338 10.8243 23.8237 10.3924 23.5995 9.93588C23.4155 9.56217 23.2112 9.28308 22.9147 8.99772C22.3854 8.49222 21.7381 8.18458 20.9668 8.07334C20.5931 8.01932 20.5187 8.00332 18.6064 8H16.0026Z" fill="url(#paint0_radial_15231_18497)"/>
<path d="M16.0026 8C12.6627 8 11.6859 8.00345 11.496 8.0192C10.8106 8.07617 10.3841 8.18409 9.91945 8.41543C9.56136 8.59324 9.27895 8.79936 9.00024 9.08829C8.49264 9.6152 8.185 10.2635 8.07364 11.034C8.0195 11.4081 8.00375 11.4844 8.00055 13.3952C7.99932 14.0321 8.00055 14.8703 8.00055 15.9947C8.00055 19.3319 8.00424 20.3077 8.02024 20.4972C8.07561 21.1642 8.18021 21.5838 8.4017 22.0428C8.82501 22.9214 9.63347 23.5809 10.5859 23.8271C10.9157 23.912 11.2799 23.9587 11.7475 23.9809C11.9457 23.9895 13.965 23.9956 15.9855 23.9956C18.006 23.9956 20.0266 23.9932 20.2198 23.9833C20.7612 23.9579 21.0756 23.9157 21.4233 23.8258C22.3818 23.5785 23.1755 22.9288 23.6075 22.0379C23.8246 21.5899 23.9348 21.1543 23.9846 20.5222C23.9954 20.3844 24 18.187 24 15.9926C24 13.7978 23.9951 11.6045 23.9842 11.4667C23.9338 10.8243 23.8237 10.3924 23.5995 9.93588C23.4155 9.56217 23.2112 9.28308 22.9147 8.99772C22.3854 8.49222 21.7381 8.18458 20.9668 8.07334C20.5931 8.01932 20.5187 8.00332 18.6064 8H16.0026Z" fill="url(#paint1_radial_15231_18497)"/>
</g>
<defs>
<radialGradient id="paint0_radial_15231_18497" cx="0" cy="0" r="1" gradientUnits="userSpaceOnUse" gradientTransform="translate(12.25 25.2276) rotate(-90) scale(15.8529 14.7484)">
<stop stop-color="#FFDD55"/>
<stop offset="0.1" stop-color="#FFDD55"/>
<stop offset="0.5" stop-color="#FF543E"/>
<stop offset="1" stop-color="#C837AB"/>
</radialGradient>
<radialGradient id="paint1_radial_15231_18497" cx="0" cy="0" r="1" gradientUnits="userSpaceOnUse" gradientTransform="translate(5.31992 9.1523) rotate(78.6776) scale(7.08637 29.2177)">
<stop stop-color="#3771C8"/>
<stop offset="0.128" stop-color="#3771C8"/>
<stop offset="1" stop-color="#6600FF" stop-opacity="0"/>
</radialGradient>
</defs>
</svg>
