<svg width="176" height="176" xmlns="http://www.w3.org/2000/svg"><path d="M79.216 5.924c-1.57.977-3.11 2.517-6.193 5.6-3.081 3.08-4.623 4.622-5.599 6.193a16.075 16.075 0 0 0 0 16.977c.976 1.57 2.517 3.11 5.597 6.19l.002.002c3.082 3.082 4.623 4.623 6.194 5.6a16.075 16.075 0 0 0 16.977 0c1.57-.976 3.11-2.517 6.193-5.6 3.082-3.081 4.622-4.622 5.599-6.193a16.075 16.075 0 0 0 0-16.976c-.977-1.57-2.517-3.112-5.599-6.194-3.082-3.081-4.623-4.622-6.194-5.599a16.075 16.075 0 0 0-16.977 0ZM99.493 102.341l35.86-35.86a16.005 16.005 0 0 1 17.437-3.469 15.992 15.992 0 0 1 5.19 3.468L176 84.5l-88 88-88-88L18.21 66.29a15.99 15.99 0 0 1 22.615.002l36.05 36.049a16 16 0 0 0 11.309 4.684 15.99 15.99 0 0 0 11.309-4.685Z" fill="#02C652"/></svg>
