<svg width="32" height="32" viewBox="0 0 32 32" fill="none" xmlns="http://www.w3.org/2000/svg">
<rect width="32" height="32" rx="16" fill="white"/>
<mask id="mask0_15231_18520" style="mask-type:alpha" maskUnits="userSpaceOnUse" x="9" y="8" width="15" height="15">
<path fill-rule="evenodd" clip-rule="evenodd" d="M9.14258 8.22852H23.7711V22.8571H9.14258V8.22852Z" fill="white"/>
</mask>
<g mask="url(#mask0_15231_18520)">
<path fill-rule="evenodd" clip-rule="evenodd" d="M13.7715 22.3291C13.475 22.2496 13.2118 22.1118 12.9581 21.9647C10.5844 20.588 9.30282 18.5371 9.15256 15.7908C8.98269 12.687 10.9931 9.6057 14.2021 8.58594C18.5508 7.204 22.9008 9.98214 23.6593 14.2881C24.3552 18.2384 21.7372 22.049 17.6514 22.7517C16.5927 22.9338 15.5264 22.883 14.4839 22.5751C14.3634 22.5396 14.2819 22.5169 14.3785 22.3751C15.0315 21.4164 15.2908 20.3099 15.5677 19.21C15.5908 19.1179 15.6167 19.0264 15.6509 18.8987C16.0028 19.3635 16.4665 19.613 17.0095 19.6751C17.9504 19.7826 18.7916 19.513 19.5198 18.9097C20.4034 18.1775 20.8721 17.209 21.0528 16.0992C21.3065 14.541 20.9401 13.1676 19.7433 12.0785C19.0857 11.48 18.2977 11.1409 17.4219 11.0079C16.2204 10.8254 15.0714 10.9931 13.9908 11.5583C11.9318 12.6352 11.1545 15.3445 12.3385 17.3088C12.5487 17.6575 12.8132 17.9551 13.179 18.1524C13.3653 18.2529 13.4973 18.2499 13.5304 18.0026C13.5327 17.9855 13.5387 17.9687 13.5444 17.9522C13.6982 17.5065 13.6861 17.1261 13.4455 16.6585C12.5182 14.8564 13.7003 12.6308 15.7101 12.2908C16.5047 12.1563 17.278 12.2104 18.0023 12.6033C18.9895 13.1388 19.4385 14.009 19.4801 15.0905C19.5175 16.0613 19.3216 16.9854 18.6961 17.7707C18.3051 18.2616 17.8067 18.5479 17.16 18.5318C16.4043 18.513 15.93 17.9132 16.1162 17.1795C16.2577 16.6222 16.439 16.0751 16.59 15.5199C16.6722 15.2178 16.742 14.9118 16.6878 14.5913C16.5601 13.8371 15.8571 13.5167 15.2079 13.9285C14.7437 14.223 14.5437 14.6847 14.476 15.2027C14.4237 15.6028 14.447 16.0098 14.5886 16.392C14.6572 16.5769 14.6484 16.7418 14.6043 16.9223C14.3682 17.8876 14.1372 18.8542 13.9025 19.8199C13.7191 20.5747 13.6835 21.3372 13.7704 22.1075C13.7781 22.1755 13.7715 22.2451 13.7715 22.3291" fill="#CC2C2D"/>
</g>
</svg>
