<svg width="32" height="32" viewBox="0 0 32 32" fill="none" xmlns="http://www.w3.org/2000/svg">
<rect width="32" height="32" rx="16" fill="white"/>
<mask id="mask0_15231_18489" style="mask-type:alpha" maskUnits="userSpaceOnUse" x="8" y="9" width="16" height="13">
<path fill-rule="evenodd" clip-rule="evenodd" d="M8.22852 9.14282H23.7714V21.9428H8.22852V9.14282Z" fill="white"/>
</mask>
<g mask="url(#mask0_15231_18489)">
<path fill-rule="evenodd" clip-rule="evenodd" d="M8.38723 20.5136C9.90691 20.5955 11.3135 20.2574 12.5758 19.3858C12.6634 19.3253 12.7456 19.2569 12.8664 19.1647C11.9001 19.0784 11.1116 18.7184 10.4982 18.0108C10.2634 17.74 10.0782 17.4407 9.95481 17.1026C9.89917 16.9501 9.92343 16.9104 10.0954 16.9371C10.4629 16.9941 10.8309 16.9894 11.2561 16.8478C10.5422 16.6327 9.97013 16.301 9.52376 15.7787C9.0594 15.2354 8.80648 14.6053 8.76704 13.8906C8.75912 13.7468 8.77243 13.6469 8.95523 13.7462C9.32187 13.9454 9.72897 13.9932 10.1525 14.0395C9.47242 13.5402 9.03852 12.8774 8.84976 12.0706C8.66048 11.2615 8.7837 10.4899 9.2177 9.7472C9.90779 10.546 10.6509 11.237 11.5324 11.7695C12.6373 12.4368 13.8246 12.8675 15.1073 13.0317C15.3416 13.0616 15.6359 13.1858 15.7938 13.0557C15.9458 12.9306 15.7782 12.635 15.7807 12.4136C15.7958 11.0851 16.5508 9.84417 17.8949 9.36264C19.1529 8.912 20.2747 9.1591 21.2528 10.0592C21.3559 10.154 21.4431 10.1612 21.5677 10.1355C22.1252 10.0205 22.6446 9.80529 23.1519 9.55524C23.213 9.52512 23.2737 9.43797 23.343 9.50352C23.4071 9.56421 23.337 9.64351 23.3106 9.70234C23.1023 10.1653 22.8119 10.5685 22.4109 10.8862C22.3277 10.9521 22.2423 11.0152 22.1011 11.123C22.7173 11.0956 23.2191 10.8884 23.7714 10.7335C23.6583 10.9917 23.4999 11.1646 23.3438 11.3361C23.0431 11.6666 22.7207 11.9752 22.3648 12.2467C22.2977 12.2979 22.2399 12.339 22.2452 12.4408C22.2908 13.3083 22.1853 14.1605 21.9643 14.9988C21.4458 16.9657 20.4307 18.6215 18.8604 19.9277C17.5051 21.0549 15.9341 21.6814 14.195 21.8784C12.1031 22.1153 10.1405 21.699 8.32476 20.6226C8.29345 20.6041 8.2606 20.5881 8.22852 20.5709C8.23813 20.4321 8.32504 20.507 8.38723 20.5136" fill="#4894E2"/>
</g>
</svg>
