<svg width="32" height="32" viewBox="0 0 32 32" fill="none" xmlns="http://www.w3.org/2000/svg">
<rect width="32" height="32" rx="16" fill="white"/>
<mask id="mask0_15231_18510" style="mask-type:alpha" maskUnits="userSpaceOnUse" x="8" y="10" width="16" height="12">
<path fill-rule="evenodd" clip-rule="evenodd" d="M8.22852 10.0571H23.7714V21.0286H8.22852V10.0571Z" fill="white"/>
</mask>
<g mask="url(#mask0_15231_18510)">
<path fill-rule="evenodd" clip-rule="evenodd" d="M18.258 15.6852C17.0759 16.364 15.8923 17.0404 14.7094 17.7177C14.4554 17.8631 14.4393 17.8555 14.4392 17.568C14.4387 16.2169 14.4386 14.8658 14.4403 13.5146C14.4404 13.4424 14.4161 13.3646 14.4834 13.2721C14.9338 13.5267 15.3865 13.7804 15.837 14.0378C16.6407 14.4969 17.4434 14.9577 18.2456 15.4196C18.3086 15.4559 18.4118 15.4653 18.4184 15.5486C18.4255 15.6395 18.3193 15.65 18.258 15.6852M23.7531 14.4327C23.739 13.6821 23.676 12.9339 23.5503 12.193C23.3727 11.1464 22.833 10.5452 21.8738 10.3418C21.5628 10.2758 21.2429 10.2379 20.9252 10.22C19.8838 10.1613 18.842 10.09 17.7996 10.074C15.3995 10.0373 12.9991 10.0435 10.6057 10.2686C9.43227 10.379 8.69032 10.939 8.48107 12.1363C8.2859 13.253 8.25758 14.3843 8.23042 15.5139C8.2199 15.952 8.25567 16.3913 8.27221 16.8299C8.2993 17.5466 8.35233 18.2613 8.48068 18.9675C8.67891 20.0581 9.25578 20.6033 10.3627 20.7766C11.1956 20.907 12.0377 20.9366 12.8758 20.9587C13.9956 20.9882 15.1155 21.0545 16.2782 21.0177C17.1472 21.0529 18.056 20.9897 18.9655 20.9701C19.8904 20.95 20.8132 20.888 21.7312 20.77C22.6338 20.654 23.2811 20.0897 23.4776 19.2451C23.5962 18.7354 23.653 18.215 23.6997 17.6951C23.7971 16.6094 23.7736 15.5206 23.7531 14.4327" fill="#EA3323"/>
</g>
</svg>
