<svg width="24" height="24" viewBox="0 0 24 24" fill="none" xmlns="http://www.w3.org/2000/svg">
<path d="M10.1496 12.0001C10.1496 11.7873 10.161 11.5875 10.1828 11.4001H13.2496C13.6086 11.4001 13.8996 11.1091 13.8996 10.7501C13.8996 10.3911 13.6086 10.1001 13.2496 10.1001H10.5979C10.6949 9.94103 10.8056 9.80087 10.928 9.67847C11.4069 9.19951 12.1577 8.9001 13.2496 8.9001C13.6086 8.9001 13.8996 8.60908 13.8996 8.2501C13.8996 7.89111 13.6086 7.6001 13.2496 7.6001C11.9248 7.6001 10.8006 7.96735 10.0087 8.75923C9.6322 9.13576 9.35167 9.58744 9.16098 10.1001H8.24961C7.89062 10.1001 7.59961 10.3911 7.59961 10.7501C7.59961 11.1091 7.89062 11.4001 8.24961 11.4001H8.87619C8.8584 11.595 8.84961 11.7951 8.84961 12.0001C8.84961 12.2051 8.8584 12.4052 8.87619 12.6001H8.24961C7.89062 12.6001 7.59961 12.8911 7.59961 13.2501C7.59961 13.6091 7.89062 13.9001 8.24961 13.9001H9.16098C9.35167 14.4128 9.6322 14.8644 10.0087 15.241C10.8006 16.0328 11.9248 16.4001 13.2496 16.4001C13.6086 16.4001 13.8996 16.1091 13.8996 15.7501C13.8996 15.3911 13.6086 15.1001 13.2496 15.1001C12.1577 15.1001 11.4069 14.8007 10.928 14.3217C10.8056 14.1993 10.6949 14.0592 10.5979 13.9001H11.9996C12.3586 13.9001 12.6496 13.6091 12.6496 13.2501C12.6496 12.8911 12.3586 12.6001 11.9996 12.6001H10.1828C10.161 12.4127 10.1496 12.2129 10.1496 12.0001Z" fill="black"/>
<path fill-rule="evenodd" clip-rule="evenodd" d="M11.9996 1.9751C6.46295 1.9751 1.97461 6.46344 1.97461 12.0001C1.97461 17.5368 6.46295 22.0251 11.9996 22.0251C17.5363 22.0251 22.0246 17.5368 22.0246 12.0001C22.0246 6.46344 17.5363 1.9751 11.9996 1.9751ZM3.27461 12.0001C3.27461 7.18141 7.18092 3.2751 11.9996 3.2751C16.8183 3.2751 20.7246 7.18141 20.7246 12.0001C20.7246 16.8188 16.8183 20.7251 11.9996 20.7251C7.18092 20.7251 3.27461 16.8188 3.27461 12.0001Z" fill="black"/>
</svg>
