<svg width="24" height="24" viewBox="0 0 24 24" fill="none" xmlns="http://www.w3.org/2000/svg">
<path d="M13.6319 13.0221L13.6403 13.0179L13.6481 13.0128C13.7051 12.9747 13.7581 12.9363 13.807 12.8975L14.1429 12.6763V15.184C14.1429 15.5079 14.171 15.7765 14.233 15.9831L14.2353 15.9895C14.3038 16.1854 14.3857 16.3478 14.4848 16.4689L14.4895 16.4747L14.4948 16.48C14.6005 16.5858 14.7184 16.6619 14.8492 16.6989C14.9616 16.7393 15.0707 16.762 15.1749 16.762C15.352 16.762 15.5076 16.7013 15.6309 16.578C15.7605 16.4484 15.8289 16.2894 15.8289 16.108C15.8289 16.0299 15.81 15.9556 15.7719 15.8879C15.7522 15.8398 15.7304 15.7958 15.7057 15.7587L15.6974 15.7464L15.6869 15.7359C15.6194 15.6684 15.5792 15.603 15.5589 15.5404C15.5434 15.4509 15.5349 15.3329 15.5349 15.184V11.7647L16.9095 10.8572L16.9118 10.8556C17.0981 10.7275 17.2009 10.5478 17.2009 10.326C17.2009 10.2692 17.1876 10.1984 17.1684 10.1216L17.1665 10.114L17.1638 10.1067C17.1171 9.97823 17.0398 9.8707 16.9329 9.78755C16.8236 9.70254 16.6982 9.65795 16.5609 9.65795C16.4588 9.65795 16.3621 9.67234 16.2797 9.71099C16.2096 9.73571 16.1396 9.77476 16.0702 9.82406L15.5349 10.1745V6.89595C15.5349 6.70157 15.4705 6.53143 15.3369 6.39788C15.2034 6.26434 15.0332 6.19995 14.8389 6.19995C14.6413 6.19995 14.4707 6.27128 14.3385 6.41419C14.2083 6.54549 14.1429 6.7092 14.1429 6.89595V11.0984L12.9794 11.852C12.7813 11.9802 12.6729 12.1659 12.6729 12.398C12.6729 12.6148 12.7392 12.8028 12.9008 12.924L12.9055 12.9273C13.0522 13.0289 13.2174 13.08 13.3969 13.08C13.4788 13.08 13.5576 13.0593 13.6319 13.0221Z" fill="black"/>
<path d="M9.07643 15.342L12.376 10.466L12.378 10.4631C12.4746 10.3128 12.5278 10.1544 12.5278 9.98995C12.5278 9.77995 12.4602 9.59887 12.3086 9.47102C12.1681 9.34336 11.997 9.27995 11.8038 9.27995H8.0938C7.91686 9.27995 7.75934 9.34015 7.62879 9.45883L7.62374 9.46389C7.49849 9.58914 7.4398 9.75053 7.4398 9.93395C7.4398 10.1109 7.50013 10.2683 7.61881 10.3989L7.62362 10.4041L7.6289 10.4089C7.75946 10.5276 7.91686 10.588 8.0938 10.588H10.737L7.42358 15.4778L7.42126 15.4814C7.33947 15.6099 7.2998 15.755 7.2998 15.912C7.2998 16.1171 7.36977 16.296 7.51174 16.438C7.64998 16.5763 7.81809 16.65 8.0098 16.65H11.8878C12.0712 16.65 12.2326 16.5913 12.3579 16.466C12.4875 16.3364 12.5558 16.1774 12.5558 15.996C12.5558 15.8165 12.4888 15.6611 12.3579 15.5398C12.2345 15.4068 12.0733 15.342 11.8878 15.342H9.07643Z" fill="black"/>
<path fill-rule="evenodd" clip-rule="evenodd" d="M11.9996 1.9751C6.46295 1.9751 1.97461 6.46344 1.97461 12.0001C1.97461 17.5368 6.46295 22.0251 11.9996 22.0251C17.5363 22.0251 22.0246 17.5368 22.0246 12.0001C22.0246 6.46344 17.5363 1.9751 11.9996 1.9751ZM3.27461 12.0001C3.27461 7.18141 7.18092 3.2751 11.9996 3.2751C16.8183 3.2751 20.7246 7.18141 20.7246 12.0001C20.7246 16.8188 16.8183 20.7251 11.9996 20.7251C7.18092 20.7251 3.27461 16.8188 3.27461 12.0001Z" fill="black"/>
</svg>
