<svg width="24" height="24" viewBox="0 0 24 24" fill="none" xmlns="http://www.w3.org/2000/svg">
<path d="M14.4996 7.6001H12.6496V6.3751C12.6496 6.01611 12.3586 5.7251 11.9996 5.7251C11.6406 5.7251 11.3496 6.01611 11.3496 6.3751V7.6001H11.0153C10.7309 7.58089 10.4454 7.62171 10.1776 7.72003C9.90066 7.8217 9.64915 7.98242 9.44054 8.19103C9.23193 8.39964 9.07121 8.65115 8.96954 8.9281C8.8708 9.19709 8.83005 9.48382 8.84986 9.76948C8.86315 10.4982 9.39837 11.0484 9.8755 11.429C10.3878 11.8378 11.0553 12.2205 11.6649 12.5699L11.6763 12.5765C12.3148 12.9426 12.8927 13.2746 13.3158 13.6083C13.774 13.9698 13.8495 14.1805 13.8495 14.2584L13.8497 14.2696C13.8516 14.3792 13.8314 14.4881 13.7903 14.5897C13.7492 14.6913 13.6881 14.7836 13.6106 14.8611C13.5331 14.9386 13.4408 14.9997 13.3392 15.0408C13.2376 15.0819 13.1287 15.102 13.0191 15.1001H9.49961C9.14062 15.1001 8.84961 15.3911 8.84961 15.7501C8.84961 16.1091 9.14062 16.4001 9.49961 16.4001H11.3496V17.6251C11.3496 17.9841 11.6406 18.2751 11.9996 18.2751C12.3586 18.2751 12.6496 17.9841 12.6496 17.6251V16.4001H13.0029C13.2849 16.4041 13.5648 16.3518 13.8263 16.2461C14.0897 16.1396 14.329 15.9812 14.5299 15.7804C14.7308 15.5795 14.8891 15.3402 14.9956 15.0768C15.1014 14.8151 15.1537 14.5348 15.1496 14.2526C15.1467 13.5168 14.599 12.9648 14.1209 12.5877C13.6187 12.1915 12.9663 11.8175 12.3666 11.4738L12.3229 11.4487C11.6856 11.0833 11.1082 10.7494 10.6862 10.4128C10.2319 10.0503 10.1496 9.83265 10.1496 9.74176C10.1496 9.72405 10.1489 9.70634 10.1474 9.68869C10.1388 9.58264 10.1532 9.47598 10.1899 9.3761C10.2266 9.27621 10.2845 9.1855 10.3598 9.11027C10.435 9.03503 10.5257 8.97707 10.6256 8.9404C10.7255 8.90373 10.8322 8.88924 10.9382 8.89793C10.9559 8.89937 10.9736 8.9001 10.9913 8.9001H14.4996C14.8586 8.9001 15.1496 8.60908 15.1496 8.2501C15.1496 7.89111 14.8586 7.6001 14.4996 7.6001Z" fill="black"/>
<path fill-rule="evenodd" clip-rule="evenodd" d="M11.9996 1.9751C6.46295 1.9751 1.97461 6.46344 1.97461 12.0001C1.97461 17.5368 6.46295 22.0251 11.9996 22.0251C17.5363 22.0251 22.0246 17.5368 22.0246 12.0001C22.0246 6.46344 17.5363 1.9751 11.9996 1.9751ZM3.27461 12.0001C3.27461 7.18141 7.18092 3.2751 11.9996 3.2751C16.8183 3.2751 20.7246 7.18141 20.7246 12.0001C20.7246 16.8188 16.8183 20.7251 11.9996 20.7251C7.18092 20.7251 3.27461 16.8188 3.27461 12.0001Z" fill="black"/>
</svg>
