<svg width="24" height="24" viewBox="0 0 24 24" fill="none" xmlns="http://www.w3.org/2000/svg">
<path d="M2.62207 15.4784C4.035 19.2864 7.70043 22.0002 12.0001 22.0002C16.2997 22.0002 19.9652 19.2864 21.3781 15.4784L12.0001 14.6089L2.62207 15.4784Z" fill="#EFCA45"/>
<path d="M12.0001 2C7.70043 2 4.035 4.71375 2.62207 8.52176L12.0001 9.39129L21.3781 8.52172C19.9652 4.71375 16.2997 2 12.0001 2Z" fill="black"/>
<path d="M2.62199 8.52173C2.22004 9.60505 2 10.7768 2 12C2 13.2232 2.22004 14.3949 2.62199 15.4782H21.378C21.78 14.3949 22 13.2232 22 12C22 10.7768 21.78 9.60505 21.378 8.52173H2.62199Z" fill="#C5291C"/>
</svg>
