<svg width="24" height="24" viewBox="0 0 24 24" fill="none" xmlns="http://www.w3.org/2000/svg">
<path d="M12 22C17.5228 22 22 17.5228 22 12C22 6.47715 17.5228 2 12 2C6.47715 2 2 6.47715 2 12C2 17.5228 6.47715 22 12 22Z" fill="white"/>
<path d="M14.6094 2.34448C15.889 2.6894 17.0669 3.28171 18.0889 4.06722L14.6094 7.54671V2.34448Z" fill="#0A2065"/>
<path d="M2.34473 9.39131C2.68961 8.11166 3.28191 6.93374 4.06742 5.91174L7.54699 9.39131H2.34473Z" fill="#0A2065"/>
<path d="M19.9326 5.91187C20.7181 6.93386 21.3104 8.11179 21.6553 9.3914H16.4531L19.9326 5.91187Z" fill="#0A2065"/>
<path d="M2.34473 14.6088C2.68965 15.8884 3.28195 17.0663 4.06742 18.0883L7.54688 14.6088H2.34473Z" fill="#0A2065"/>
<path d="M5.91211 19.9328C6.9341 20.7183 8.11203 21.3106 9.39164 21.6556V16.4534L5.91211 19.9328Z" fill="#0A2065"/>
<path d="M5.91211 4.06718C6.93406 3.28171 8.11199 2.6894 9.3916 2.34448V7.54667L5.91211 4.06718Z" fill="#0A2065"/>
<path d="M14.6094 21.6556C15.889 21.3106 17.0669 20.7183 18.0889 19.9329L14.6094 16.4534V21.6556Z" fill="#0A2065"/>
<path d="M19.9326 18.0883L16.4531 14.6088H21.6553C21.3104 15.8884 20.7181 17.0663 19.9326 18.0883Z" fill="#0A2065"/>
<path d="M21.9154 10.6957H13.3044L13.3044 2.08465C12.8774 2.02906 12.4421 2 12 2C11.5579 2 11.1226 2.02906 10.6957 2.08465V10.6956L2.08465 10.6956C2.02906 11.1226 2 11.5579 2 12C2 12.4421 2.02906 12.8774 2.08465 13.3043H10.6956L10.6956 21.9154C11.1226 21.9709 11.5579 22 12 22C12.4421 22 12.8774 21.971 13.3043 21.9154V13.3044L21.9154 13.3044C21.9709 12.8774 22 12.4421 22 12C22 11.5579 21.9709 11.1226 21.9154 10.6957Z" fill="#B72B35"/>
<path d="M14.6084 14.6088L19.0707 19.0711C19.276 18.866 19.4718 18.6515 19.6586 18.4292L15.8382 14.6088L14.6084 14.6088Z" fill="#B72B35"/>
<path d="M9.39109 14.6088V15.8384L5.5707 19.6589C5.34836 19.4721 5.13387 19.2763 4.92871 19.0711L9.39109 14.6088Z" fill="#B72B35"/>
<path d="M9.39098 9.39134L4.92863 4.92896C4.7234 5.13411 4.52762 5.3486 4.34082 5.57095L8.16125 9.39138L9.39098 9.39134Z" fill="#B72B35"/>
<path d="M19.0708 4.92896L14.6084 9.39138V8.16162L18.4288 4.34119C18.6511 4.52794 18.8656 4.72373 19.0708 4.92896Z" fill="#B72B35"/>
</svg>
